{
  "accessors": [
    {
      "bufferView": 2,
      "componentType": 5126,
      "count": 4921,
      "max": [
        49.99545669555664,
        97.087890625,
        64.26960754394531
      ],
      "min": [
        -55.97893524169922,
        -0.10992368310689926,
        -62.06241226196289
      ],
      "type": "VEC3"
    },
    {
      "bufferView": 2,
      "byteOffset": 59052,
      "componentType": 5126,
      "count": 4921,
      "max": [
        0.9997752904891968,
        0.9999600052833557,
        0.9995789527893066
      ],
      "min": [
        -0.9997522234916687,
        -0.9999741911888123,
        -0.9999633431434631
      ],
      "type": "VEC3"
    },
    {
      "bufferView": 3,
      "componentType": 5126,
      "count": 4921,
      "max": [
        0.99974524974823,
        0.9996935129165649,
        0.99972003698349,
        1.0
      ],
      "min": [
        -0.999944269657135,
        -0.9997566938400269,
        -0.9998557567596436,
        1.0
      ],
      "type": "VEC4"
    },
    {
      "bufferView": 1,
      "componentType": 5126,
      "count": 4921,
      "max": [
        0.9817913174629211,
        1.0
      ],
      "min": [
        0.0,
        0.0
      ],
      "type": "VEC2"
    },
    {
      "bufferView": 0,
      "componentType": 5125,
      "count": 25356,
      "type": "SCALAR"
    }
  ],
  "asset": {
    "extras": {
      "author": "Harry_L (https://sketchfab.com/Harry_L)",
      "license": "CC-BY-4.0 (http://creativecommons.org/licenses/by/4.0/)",
      "source": "https://sketchfab.com/3d-models/old-dead-tree-8c680561463a4e909fd24b4cc8bc7e48",
      "title": "Old Dead Tree"
    },
    "generator": "Sketchfab-12.67.0",
    "version": "2.0"
  },
  "bufferViews": [
    {
      "buffer": 0,
      "byteLength": 101424,
      "name": "floatBufferViews",
      "target": 34963
    },
    {
      "buffer": 0,
      "byteLength": 39368,
      "byteOffset": 101424,
      "byteStride": 8,
      "name": "floatBufferViews",
      "target": 34962
    },
    {
      "buffer": 0,
      "byteLength": 118104,
      "byteOffset": 140792,
      "byteStride": 12,
      "name": "floatBufferViews",
      "target": 34962
    },
    {
      "buffer": 0,
      "byteLength": 78736,
      "byteOffset": 258896,
      "byteStride": 16,
      "name": "floatBufferViews",
      "target": 34962
    }
  ],
  "buffers": [
    {
      "byteLength": 337632,
      "uri": "scene.bin"
    }
  ],
  "images": [
    {
      "uri": "textures/Tree_Dead_baseColor.png"
    },
    {
      "uri": "textures/Tree_Dead_metallicRoughness.png"
    },
    {
      "uri": "textures/Tree_Dead_normal.png"
    }
  ],
  "materials": [
    {
      "doubleSided": true,
      "name": "Tree_Dead",
      "normalTexture": {
        "index": 2
      },
      "occlusionTexture": {
        "index": 1
      },
      "pbrMetallicRoughness": {
        "baseColorTexture": {
          "index": 0
        },
        "metallicRoughnessTexture": {
          "index": 1
        }
      }
    }
  ],
  "meshes": [
    {
      "name": "Tree_Mp1_Tree_Dead_0",
      "primitives": [
        {
          "attributes": {
            "NORMAL": 1,
            "POSITION": 0,
            "TANGENT": 2,
            "TEXCOORD_0": 3
          },
          "indices": 4,
          "material": 0,
          "mode": 4
        }
      ]
    }
  ],
  "nodes": [
    {
      "children": [
        1
      ],
      "matrix": [
        1.0,
        0.0,
        0.0,
        0.0,
        0.0,
        2.220446049250313e-16,
        -1.0,
        0.0,
        0.0,
        1.0,
        2.220446049250313e-16,
        0.0,
        0.0,
        0.0,
        0.0,
        1.0
      ],
      "name": "Sketchfab_model"
    },
    {
      "children": [
        2
      ],
      "matrix": [
        1.0,
        0.0,
        0.0,
        0.0,
        0.0,
        0.0,
        1.0,
        0.0,
        0.0,
        -1.0,
        0.0,
        0.0,
        0.0,
        0.0,
        0.0,
        1.0
      ],
      "name": "4bff9a6199694e949b8bbba6c5823226.fbx"
    },
    {
      "children": [
        3
      ],
      "name": "RootNode"
    },
    {
      "children": [
        4
      ],
      "name": "Tree_Mp1"
    },
    {
      "mesh": 0,
      "name": "Tree_Mp1_Tree_Dead_0"
    }
  ],
  "samplers": [
    {
      "magFilter": 9729,
      "minFilter": 9987,
      "wrapS": 10497,
      "wrapT": 10497
    }
  ],
  "scene": 0,
  "scenes": [
    {
      "name": "Sketchfab_Scene",
      "nodes": [
        0
      ]
    }
  ],
  "textures": [
    {
      "sampler": 0,
      "source": 0
    },
    {
      "sampler": 0,
      "source": 1
    },
    {
      "sampler": 0,
      "source": 2
    }
  ]
}
